<?xml version="1.0" encoding="UTF-8"?>
<svg id="Calque_1" data-name="Calque 1" xmlns="http://www.w3.org/2000/svg" version="1.1" viewBox="0 0 800 800">
  <defs>
    <style>
      .cls-1 {
        fill: #000;
        fill-rule: evenodd;
        stroke-width: 0px;
      }
    </style>
  </defs>
  <path class="cls-1" d="M751.2,365.7c-18.1-27.7-59-84.9-117.8-135.5-58.6-50.4-138.3-96.9-233.4-96.9s-174.8,46.5-233.4,96.9c-58.8,50.6-99.7,107.7-117.8,135.5-13.7,21-13.7,47.7,0,68.7,12.2,18.7,34.9,50.9,66.4,85.4l-47.2,62.9s0,0,0,0c-13.2,17.7-9.7,42.7,8,56,17.7,13.2,42.7,9.7,56-8l41.4-55.2c49.3,40.9,112.5,78.2,186.6,88.4v62.8c0,22.1,17.9,40,40,40s40-17.9,40-40v-62.8c74.1-10.2,137.3-47.5,186.6-88.4l41.4,55.2c13.3,17.7,38.3,21.3,56,8s21.3-38.3,8-56l-47.2-62.9c31.5-34.5,54.2-66.7,66.4-85.4,13.7-21,13.7-47.7,0-68.7ZM590,519.2c-52.4,45-117.1,80.8-190,80.8s-137.5-35.7-190-80.8c-50.8-43.6-87-93.5-104-119.2,17-25.8,53.3-75.6,104-119.2,52.4-45,117.1-80.8,190-80.8s137.5,35.7,190,80.8c50.8,43.6,87,93.5,104,119.2-17,25.8-53.3,75.6-104,119.2Z"/>
</svg>